<svg width="10" height="16" viewBox="0 0 10 16" fill="none" xmlns="http://www.w3.org/2000/svg">
<path id="Vector" d="M8.7751 0.420946C8.90235 0.553514 9.0033 0.710979 9.07218 0.884327C9.14106 1.05768 9.17651 1.2435 9.17651 1.43118C9.17651 1.61885 9.14106 1.80468 9.07218 1.97802C9.0033 2.15137 8.90235 2.30884 8.7751 2.4414L3.44936 8.00125L8.7751 13.5611C9.03175 13.829 9.17593 14.1924 9.17593 14.5713C9.17593 14.9502 9.03175 15.3136 8.7751 15.5816C8.51845 15.8495 8.17036 16 7.80741 16C7.44445 16 7.09636 15.8495 6.83971 15.5816L0.539415 9.00431C0.412169 8.87175 0.311217 8.71428 0.242337 8.54093C0.173457 8.36758 0.138004 8.18175 0.138004 7.99408C0.138004 7.80641 0.173457 7.62058 0.242337 7.44724C0.311217 7.27389 0.412169 7.11642 0.539415 6.98385L6.83971 0.406617C7.36131 -0.137904 8.23978 -0.137904 8.7751 0.420946Z" fill="#A9A9A9" fill-opacity="0.73"/>
</svg>
