<svg width="34" height="33" viewBox="0 0 34 33" fill="none" xmlns="http://www.w3.org/2000/svg">
<g id="Bell_light">
<path id="Rectangle 1" d="M9.36578 12.333C9.79801 8.44295 13.0861 5.5 17 5.5V5.5C20.9139 5.5 24.202 8.44294 24.6342 12.333L24.9804 15.449C25.0568 16.1363 25.095 16.4799 25.1617 16.8156C25.2964 17.4932 25.5183 18.1506 25.8218 18.7712C25.9722 19.0787 26.1501 19.3751 26.5058 19.9681L27.5576 21.721C28.3634 23.0639 28.7662 23.7354 28.479 24.2427C28.1918 24.75 27.4087 24.75 25.8426 24.75H8.15738C6.59127 24.75 5.80822 24.75 5.52099 24.2427C5.23376 23.7354 5.63664 23.0639 6.4424 21.721L7.49415 19.9681C7.84992 19.3751 8.0278 19.0787 8.1782 18.7712C8.48175 18.1506 8.70362 17.4932 8.83829 16.8156C8.90501 16.4799 8.94319 16.1363 9.01956 15.449L9.36578 12.333Z" stroke="white"/>
<path id="Ellipse 45" d="M13.0156 25.3081C13.2506 26.3314 13.7685 27.2356 14.4889 27.8805C15.2093 28.5254 16.0919 28.875 17 28.875C17.9081 28.875 18.7907 28.5254 19.5111 27.8805C20.2315 27.2356 20.7494 26.3314 20.9844 25.3081" stroke="white" stroke-linecap="round"/>
</g>
</svg>
