<svg width="35" height="35" viewBox="0 0 35 35" fill="none" xmlns="http://www.w3.org/2000/svg">
<g id="Book_light">
<path id="Vector 57" d="M28.8334 17.5V26.25C28.8334 28.1356 28.8334 29.0784 28.2476 29.6642C27.6618 30.25 26.719 30.25 24.8334 30.25H9.70841C9.20526 30.25 8.95368 30.25 8.74275 30.2199C7.4226 30.0314 6.38533 28.9941 6.19686 27.674C6.16675 27.4631 6.16675 27.2115 6.16675 26.7083V26.7083C6.16675 26.2052 6.16675 25.9536 6.19686 25.7427C6.38533 24.4225 7.4226 23.3853 8.74275 23.1968C8.95368 23.1667 9.20526 23.1667 9.70841 23.1667H24.8334C26.719 23.1667 27.6618 23.1667 28.2476 22.5809C28.8334 21.9951 28.8334 21.0523 28.8334 19.1667V8.75C28.8334 6.86438 28.8334 5.92157 28.2476 5.33579C27.6618 4.75 26.719 4.75 24.8334 4.75H10.1667C8.28113 4.75 7.33832 4.75 6.75253 5.33579C6.16675 5.92157 6.16675 6.86438 6.16675 8.75V26.7083" stroke="#F9F9F9"/>
<path id="Vector 55" d="M13.25 11.8334L21.75 11.8334" stroke="#F9F9F9" stroke-linecap="round"/>
</g>
</svg>
