<svg width="36" height="33" viewBox="0 0 36 33" fill="none" xmlns="http://www.w3.org/2000/svg">
<g id="icon" clip-path="url(#clip0_360_529)">
<g id="vector">
<g id="icon elements">
<path id="book rectangle shape" d="M13.184 11.5149H9.51731C9.32343 11.5149 9.16626 11.7035 9.16626 11.9361V27.3348C9.16626 27.5674 9.32343 27.756 9.51731 27.756H13.184C13.3779 27.756 13.5351 27.5674 13.5351 27.3348V11.9361C13.5351 11.7035 13.3779 11.5149 13.184 11.5149Z" fill="white"/>
<path id="book round shape" d="M22.9598 13.4236C23.1567 13.9578 23.4177 14.4546 23.7346 14.8982C23.7644 14.9396 23.7948 14.9804 23.8258 15.0204C23.9455 15.1745 24.0743 15.3179 24.2114 15.4495C24.2442 15.4817 24.2781 15.5125 24.3115 15.5425C24.7103 15.8958 25.1138 16.0767 25.4887 16.0767C25.5232 16.0767 25.5572 16.0767 25.5912 16.0717L25.6281 16.0681H25.6329C25.6543 16.0681 25.6752 16.0624 25.6967 16.0581C25.7068 16.0581 25.7163 16.0538 25.7265 16.0517L25.764 16.0431L25.7944 16.0345L25.8308 16.0245L25.8552 16.0152L25.8969 16.0009L25.922 15.9902C25.9351 15.9844 25.9488 15.9794 25.9619 15.973L25.9726 15.9673C25.9905 15.9594 26.0078 15.9508 26.0257 15.9408C26.0573 15.9236 26.0882 15.9051 26.1186 15.8857L26.1282 15.8786C26.155 15.86 26.1812 15.8414 26.2069 15.8214C26.264 15.7762 26.318 15.7255 26.3684 15.6698C26.372 15.6698 26.3749 15.6619 26.3779 15.6583C26.4519 15.5751 26.5182 15.4825 26.5758 15.3823L26.5859 15.363C26.6026 15.333 26.6193 15.3029 26.6348 15.2715C26.637 15.2671 26.639 15.2625 26.6408 15.2579C26.6574 15.2235 26.6735 15.1864 26.6884 15.1535C26.6926 15.1442 26.6956 15.1349 26.6992 15.1263C26.7123 15.0941 26.7254 15.0619 26.7373 15.0283C26.7439 15.0104 26.7492 14.9911 26.7552 14.9725C26.7612 14.9539 26.7725 14.9225 26.7808 14.896L26.7951 14.8424C26.8575 14.6144 26.8975 14.3785 26.9143 14.1394C26.9739 13.3378 26.8231 12.406 26.4894 11.5164C25.7592 9.56908 24.4123 8.46207 23.4223 8.99627C22.9151 9.27016 22.5992 9.91019 22.533 10.7998C22.518 11.007 22.5163 11.2152 22.5276 11.4227C22.5709 12.1153 22.7172 12.793 22.9598 13.4236Z" fill="white"/>
<path id="dot" d="M35.22 9.00623C35.0656 9.00608 34.9146 9.06092 34.7862 9.16379C34.6578 9.26666 34.5577 9.41293 34.4986 9.58409C34.4395 9.75525 34.4241 9.9436 34.4543 10.1253C34.4844 10.307 34.5589 10.4738 34.6681 10.6047C34.7774 10.7356 34.9166 10.8247 35.0681 10.8606C35.2195 10.8966 35.3765 10.8778 35.5191 10.8066C35.6616 10.7355 35.7834 10.6151 35.8689 10.4609C35.9545 10.3067 35.9999 10.1254 35.9996 9.94017C35.9991 9.6924 35.9168 9.45496 35.7706 9.2799C35.6245 9.10483 35.4265 9.00641 35.22 9.00623Z" fill="white"/>
<path id="small star" d="M32.027 11.2539C32.0214 11.2231 32.0075 11.1954 31.9874 11.1751C31.9674 11.1548 31.9423 11.143 31.9161 11.1415C31.8898 11.14 31.864 11.149 31.8424 11.167C31.8209 11.185 31.8049 11.211 31.7969 11.241C31.7209 11.4776 31.6044 11.6925 31.455 11.8717C31.3055 12.0509 31.1264 12.1905 30.9291 12.2815C30.9046 12.2912 30.8833 12.3101 30.8685 12.3355C30.8537 12.3609 30.8461 12.3914 30.847 12.4223C30.8479 12.4533 30.8571 12.4831 30.8733 12.5072C30.8895 12.5314 30.9118 12.5485 30.9369 12.5561C31.1396 12.6299 31.3239 12.7627 31.4736 12.9426C31.6232 13.1225 31.7334 13.344 31.7945 13.5873C31.8023 13.6164 31.8176 13.6417 31.8382 13.6596C31.8587 13.6775 31.8836 13.687 31.909 13.6867C31.9343 13.6872 31.9592 13.678 31.9799 13.6604C32.0005 13.6428 32.016 13.6177 32.024 13.5888C32.0887 13.3474 32.2004 13.1279 32.3499 12.9486C32.4993 12.7693 32.6822 12.6352 32.8835 12.5576C32.9078 12.5474 32.9289 12.5281 32.9436 12.5027C32.9583 12.4772 32.9659 12.4468 32.9653 12.4158C32.9647 12.3848 32.956 12.3548 32.9403 12.3302C32.9246 12.3056 32.9028 12.2875 32.8781 12.2787C32.6729 12.2146 32.4857 12.0858 32.336 11.9056C32.1864 11.7254 32.0797 11.5003 32.027 11.2539Z" fill="white"/>
<path id="big star" d="M30.6205 6.26169C31.4305 6.58778 31.9568 7.21924 32.2298 8.19252C32.245 8.24685 32.2739 8.29413 32.3126 8.32773C32.3513 8.36133 32.3978 8.37956 32.4455 8.37988C32.4931 8.37981 32.5395 8.36202 32.5782 8.32897C32.617 8.29592 32.6462 8.24924 32.6619 8.19538C32.9444 7.23211 33.4719 6.59923 34.2753 6.26026C34.3208 6.24076 34.36 6.20455 34.3873 6.15679C34.4146 6.10902 34.4287 6.05214 34.4275 5.99423C34.4263 5.93632 34.4099 5.88033 34.3807 5.83424C34.3514 5.78815 34.3108 5.7543 34.2646 5.73751C33.4367 5.44073 32.9134 4.81285 32.6661 3.81883C32.6526 3.76422 32.6254 3.71597 32.5881 3.68076C32.5508 3.64555 32.5053 3.62511 32.4579 3.62229C32.4105 3.61946 32.3636 3.63438 32.3236 3.66498C32.2835 3.69558 32.2524 3.74035 32.2346 3.79309C32.0919 4.23702 31.8733 4.64017 31.5928 4.97654C31.3124 5.31292 30.9763 5.57506 30.6062 5.74609C30.563 5.76745 30.5262 5.80416 30.5008 5.8513C30.4754 5.89844 30.4627 5.95376 30.4642 6.00985C30.4658 6.06593 30.4816 6.12011 30.5095 6.16512C30.5375 6.21013 30.5762 6.24383 30.6205 6.26169Z" fill="white"/>
<path id="books shape" d="M34.1989 30.5497H30.5376L33.4903 28.9564C33.7541 28.8131 33.9598 28.5503 34.0625 28.2254C34.1651 27.9005 34.1563 27.5401 34.038 27.223L31.3428 20.0353L30.186 16.9488L26.3345 6.67323C26.2757 6.51619 26.1916 6.37461 26.0871 6.25657C25.9827 6.13853 25.8598 6.04636 25.7257 5.98532C25.5915 5.92429 25.4486 5.89558 25.3052 5.90085C25.1617 5.90612 25.0206 5.94526 24.8897 6.01604L20.5913 8.33517C20.4524 8.40968 20.3283 8.51862 20.2271 8.65483L18.7216 1.0109C18.6888 0.843267 18.6287 0.685045 18.5449 0.545293C18.461 0.40554 18.355 0.287002 18.233 0.196464C18.1109 0.105925 17.9751 0.0451659 17.8335 0.0176636C17.6918 -0.00983866 17.547 -0.00354355 17.4074 0.0361885L13.9624 1.01233C13.6806 1.09283 13.437 1.30412 13.2849 1.59987C13.1329 1.89561 13.0848 2.25165 13.1512 2.58989L14.2491 8.16784C14.1311 8.11665 14.0067 8.09028 13.8813 8.08989H8.82114C8.68762 8.09026 8.55529 8.12007 8.43075 8.17785V4.14814C8.43043 3.7786 8.30794 3.42431 8.09016 3.16301C7.87238 2.90171 7.5771 2.75474 7.26911 2.75437H2.67978C2.52708 2.75418 2.37584 2.79008 2.2347 2.86002C2.09356 2.92996 1.96528 3.03258 1.85719 3.162C1.7491 3.29142 1.66332 3.44512 1.60473 3.61433C1.54615 3.78353 1.51592 3.96492 1.51576 4.14814V29.7924C1.51561 30.0623 1.58129 30.3263 1.7047 30.5519H1.02107C0.754482 30.5596 0.50098 30.6921 0.31471 30.921C0.128441 31.15 0.0241699 31.4573 0.0241699 31.7772C0.0241699 32.0972 0.128441 32.4044 0.31471 32.6334C0.50098 32.8624 0.754482 32.9949 1.02107 33.0026H34.1989C34.4655 32.9949 34.719 32.8624 34.9053 32.6334C35.0916 32.4044 35.1958 32.0972 35.1958 31.7772C35.1958 31.4573 35.0916 31.15 34.9053 30.921C34.719 30.6921 34.4655 30.5596 34.1989 30.5519V30.5497ZM24.1805 28.7254L23.6822 26.1989L23.2406 23.957L21.0174 12.671L23.895 20.3464L25.0519 23.4321L27.7208 30.5519H22.4985L23.3681 30.3059C23.6503 30.225 23.8942 30.0133 24.0465 29.7171C24.1987 29.4208 24.2469 29.0642 24.1805 28.7254ZM30.8463 20.7647L33.3973 27.5684C33.4398 27.6816 33.4432 27.8105 33.4067 27.9267C33.3701 28.043 33.2967 28.1371 33.2024 28.1884L28.9039 30.5089C28.8093 30.5597 28.7018 30.5633 28.6049 30.5191C28.508 30.4748 28.4297 30.3863 28.3872 30.273L25.8362 23.4679L25.8958 23.4343L30.8463 20.7647ZM20.6741 9.36423C20.6922 9.30664 20.7197 9.25392 20.7549 9.20912C20.7901 9.16432 20.8323 9.12833 20.8792 9.10321L25.1782 6.78336C25.2285 6.75633 25.2829 6.7422 25.338 6.74188C25.3852 6.74176 25.4321 6.75219 25.4762 6.77263C25.5244 6.79426 25.5684 6.82714 25.6059 6.86937C25.6433 6.9116 25.6734 6.96234 25.6944 7.01864L29.4022 16.9095L24.9285 19.3237L24.3921 19.6141L20.6819 9.72609C20.6605 9.66946 20.6488 9.60826 20.6474 9.5461C20.6461 9.48395 20.6552 9.4221 20.6741 9.36423ZM20.416 25.1877L22.638 24.557L22.9187 25.9822L20.1002 26.781L18.715 27.1751L18.4349 25.7512L20.416 25.1877ZM14.8254 2.89238L17.3364 2.18084C17.3814 2.16775 17.4282 2.16546 17.4739 2.17409C17.5197 2.18272 17.5635 2.20212 17.603 2.23116C17.6425 2.26019 17.6768 2.2983 17.704 2.3433C17.7312 2.38829 17.7507 2.43928 17.7614 2.49335L18.7746 7.63292C18.7852 7.68674 18.7869 7.74254 18.7795 7.79713C18.7722 7.85172 18.7559 7.90403 18.7316 7.95106C18.7074 7.99809 18.6756 8.03892 18.6382 8.07121C18.6008 8.10349 18.5584 8.12661 18.5136 8.13923L16.0025 8.85435C15.9762 8.86168 15.9492 8.86552 15.9221 8.86579C15.843 8.86587 15.7662 8.83383 15.7042 8.77488C15.6422 8.71594 15.5986 8.63355 15.5806 8.54113L14.5673 3.40155C14.5563 3.34778 14.5543 3.29193 14.5613 3.23721C14.5683 3.18248 14.5842 3.12995 14.6082 3.08264C14.6322 3.03534 14.6637 2.99417 14.701 2.96152C14.7383 2.92887 14.7806 2.90538 14.8254 2.89238ZM8.42836 29.7903V9.39856C8.42852 9.27432 8.46968 9.15522 8.54284 9.0673C8.61601 8.97939 8.71521 8.92982 8.81876 8.92944H13.8813C13.985 8.92963 14.0843 8.97911 14.1576 9.06705C14.2309 9.15499 14.2722 9.2742 14.2723 9.39856V29.8732C14.2721 29.9975 14.2309 30.1166 14.1576 30.2045C14.0843 30.2923 13.9849 30.3416 13.8813 30.3416H8.82114C8.71765 30.3414 8.61844 30.292 8.54526 30.2042C8.47209 30.1164 8.43091 29.9974 8.43075 29.8732L8.42836 29.7903ZM2.21787 9.21978H7.72626V10.1108H2.21787V9.21978ZM2.21787 10.9525H7.72626V12.9334H2.21787V10.9525ZM2.21787 23.6581H7.72626V24.5484H2.21787V23.6581ZM14.9726 29.8732V11.8471L17.6678 25.5338L18.1095 27.775L18.6071 30.303C18.6235 30.3871 18.6469 30.469 18.6769 30.5476H14.8153C14.9187 30.3445 14.9736 30.1112 14.9738 29.8732H14.9726Z" fill="white"/>
</g>
</g>
</g>
<defs>
<clipPath id="clip0_360_529">
<rect width="36" height="33" fill="white"/>
</clipPath>
</defs>
</svg>
