<?xml version="1.0"?><svg fill="#FFFFFF" xmlns="http://www.w3.org/2000/svg"  viewBox="0 0 50 50" width="25px" height="25px">    <path d="M25,2C12.318,2,2,12.317,2,25s10.318,23,23,23s23-10.317,23-23S37.682,2,25,2z M37.735,12.679L27.644,23.61 C27.864,24.027,28,24.496,28,25c0,0.76-0.292,1.447-0.758,1.976l3.632,6.539c0.269,0.482,0.094,1.091-0.388,1.359 C30.332,34.96,30.165,35,30.001,35c-0.352,0-0.692-0.186-0.875-0.515l-3.631-6.535C25.333,27.977,25.17,28,25,28 c-1.657,0-3-1.343-3-3s1.343-3,3-3c0.42,0,0.82,0.088,1.183,0.244l10.082-10.923c0.375-0.404,1.007-0.431,1.413-0.056 C38.084,11.64,38.109,12.272,37.735,12.679z"/></svg>