<svg width="40" height="40" viewBox="0 0 40 40" xmlns="http://www.w3.org/2000/svg" fill="none">
<g id="menus/close_line_round">
<g id="transfer">
<path fill-rule="evenodd" clip-rule="evenodd" d="M36.6668 20.0001C36.6668 10.7953 29.2049 3.33342 20.0002 3.33342C10.7954 3.33342 3.3335 10.7953 3.3335 20.0001C3.3335 29.2048 10.7954 36.6667 20.0002 36.6667C29.2007 36.6566 36.6567 29.2006 36.6668 20.0001ZM19.9935 33.3201C27.3547 33.3238 33.3261 27.3613 33.3335 20.0001C33.3261 12.6389 27.3547 6.64974 19.9935 6.65342C12.6323 6.6571 6.66684 12.6256 6.66684 19.9867C6.66684 27.3479 12.6323 33.3164 19.9935 33.3201Z" fill="white"/>
<path d="M17.5251 20.0072L12.1084 25.4239L14.6084 27.9239L20.0251 22.5072L25.4417 27.9239L27.9417 25.4239L22.5251 20.0072L27.9417 14.5905L25.4417 12.0905L20.0251 17.5072L14.6084 12.0905L12.1084 14.5905L17.5251 20.0072Z" fill="white"/>
</g>
</g>
</svg>