<svg width="32" height="33" viewBox="0 0 32 33" fill="none" xmlns="http://www.w3.org/2000/svg">
<g id="vuesax/outline/frame">
<g id="frame">
<path id="Vector" d="M16.211 15.9976C16.1713 15.9976 16.1449 15.9976 16.1052 15.9976C16.0392 15.9844 15.9466 15.9844 15.8673 15.9976C12.0336 15.8786 9.13843 12.8645 9.13843 9.14976C9.13843 5.3689 12.2186 2.2887 15.9995 2.2887C19.7803 2.2887 22.8606 5.3689 22.8606 9.14976C22.8473 12.8645 19.939 15.8786 16.2507 15.9976C16.2374 15.9976 16.2242 15.9976 16.211 15.9976ZM15.9995 4.27166C13.3159 4.27166 11.1214 6.46615 11.1214 9.14976C11.1214 11.7937 13.1837 13.9221 15.8144 14.0146C15.8805 14.0014 16.0656 14.0014 16.2374 14.0146C18.8285 13.8957 20.8644 11.7673 20.8776 9.14976C20.8776 6.46615 18.6831 4.27166 15.9995 4.27166Z" fill="white"/>
<path id="Vector_2" d="M16.2242 30.4469C13.6331 30.4469 11.0288 29.7859 9.05905 28.4639C7.2215 27.2477 6.2168 25.582 6.2168 23.7709C6.2168 21.9598 7.2215 20.2809 9.05905 19.0514C13.025 16.4207 19.4498 16.4207 23.3893 19.0514C25.2136 20.2676 26.2315 21.9333 26.2315 23.7444C26.2315 25.5555 25.2268 27.2345 23.3893 28.4639C21.4063 29.7859 18.8152 30.4469 16.2242 30.4469ZM10.1563 20.7171C8.88719 21.5632 8.19976 22.6472 8.19976 23.7841C8.19976 24.9078 8.90041 25.9918 10.1563 26.8246C13.448 29.0323 19.0003 29.0323 22.292 26.8246C23.5611 25.9786 24.2486 24.8946 24.2486 23.7577C24.2486 22.634 23.5479 21.55 22.292 20.7171C19.0003 18.5226 13.448 18.5226 10.1563 20.7171Z" fill="white"/>
</g>
</g>
</svg>
