<svg width="10" height="17" viewBox="0 0 10 17" fill="none" xmlns="http://www.w3.org/2000/svg">
<path id="Vector" d="M0.401413 0.920947C0.274167 1.05351 0.173214 1.21098 0.104335 1.38433C0.0354549 1.55768 0 1.7435 0 1.93118C0 2.11885 0.0354549 2.30468 0.104335 2.47802C0.173214 2.65137 0.274167 2.80884 0.401413 2.94141L5.72716 8.50125L0.401413 14.0611C0.144765 14.329 0.000581208 14.6924 0.000581208 15.0713C0.000581208 15.4502 0.144765 15.8136 0.401413 16.0816C0.658061 16.3495 1.00615 16.5 1.36911 16.5C1.73206 16.5 2.08015 16.3495 2.3368 16.0816L8.6371 9.50431C8.76434 9.37175 8.8653 9.21428 8.93418 9.04093C9.00306 8.86758 9.03851 8.68176 9.03851 8.49408C9.03851 8.30641 9.00306 8.12058 8.93418 7.94724C8.8653 7.77389 8.76434 7.61642 8.6371 7.48385L2.3368 0.906617C1.81521 0.362096 0.936733 0.362096 0.401413 0.920947Z" fill="#A9A9A9" fill-opacity="0.73"/>
</svg>
