<svg width="33" height="33" viewBox="0 0 33 33" fill="none" xmlns="http://www.w3.org/2000/svg">
<g id="vuesax/outline/home-2">
<g id="home-2">
<path id="Vector" d="M24.2806 30.9457H8.71943C5.03743 30.9457 2.0542 27.949 2.0542 24.267L2.0542 14.3095C2.0542 12.4819 3.18299 10.184 4.63429 9.05522L11.8774 3.41128C14.0543 1.71809 17.5347 1.63746 19.7923 3.22314L28.097 9.04179C29.6961 10.1571 30.9458 12.5491 30.9458 14.4976V24.2804C30.9458 27.949 27.9626 30.9457 24.2806 30.9457ZM13.1136 4.99696L5.87058 10.6409C4.91649 11.3934 4.06989 13.1001 4.06989 14.3095L4.06989 24.267C4.06989 26.8337 6.15278 28.93 8.71943 28.93H24.2806C26.8473 28.93 28.9301 26.8471 28.9301 24.2804V14.4976C28.9301 13.2076 28.0029 11.4203 26.9413 10.6947L18.6367 4.87601C17.1047 3.80098 14.5784 3.85473 13.1136 4.99696Z" fill="white"/>
<path id="Vector_2" d="M16.5 25.5705C15.9491 25.5705 15.4922 25.1136 15.4922 24.5627V20.5313C15.4922 19.9803 15.9491 19.5234 16.5 19.5234C17.051 19.5234 17.5079 19.9803 17.5079 20.5313V24.5627C17.5079 25.1136 17.051 25.5705 16.5 25.5705Z" fill="white"/>
</g>
</g>
</svg>
