<svg width="32" height="31" viewBox="0 0 32 31" fill="none" xmlns="http://www.w3.org/2000/svg">
<g id="settings">
<path id="Vector" d="M25.597 16.7659C25.6487 16.3525 25.6874 15.9392 25.6874 15.5C25.6874 15.0609 25.6487 14.6475 25.597 14.2342L28.3224 12.103C28.5678 11.9092 28.6324 11.5605 28.4774 11.2763L25.8941 6.80712C25.7778 6.60046 25.5582 6.48421 25.3257 6.48421C25.2482 6.48421 25.1707 6.49712 25.1062 6.52296L21.8899 7.81462C21.2182 7.29796 20.4949 6.87171 19.707 6.54879L19.2162 3.12587C19.1774 2.81587 18.9062 2.58337 18.5832 2.58337H13.4166C13.0937 2.58337 12.8224 2.81587 12.7837 3.12587L12.2928 6.54879C11.5049 6.87171 10.7816 7.31087 10.1099 7.81462L6.89366 6.52296C6.81616 6.49712 6.73866 6.48421 6.66116 6.48421C6.44158 6.48421 6.222 6.60046 6.10575 6.80712L3.52241 11.2763C3.3545 11.5605 3.432 11.9092 3.67741 12.103L6.40283 14.2342C6.35117 14.6475 6.31241 15.0738 6.31241 15.5C6.31241 15.9263 6.35117 16.3525 6.40283 16.7659L3.67741 18.8971C3.432 19.0909 3.36741 19.4396 3.52241 19.7238L6.10575 24.193C6.222 24.3996 6.44158 24.5159 6.67408 24.5159C6.75158 24.5159 6.82908 24.503 6.89366 24.4771L10.1099 23.1855C10.7816 23.7021 11.5049 24.1284 12.2928 24.4513L12.7837 27.8742C12.8224 28.1842 13.0937 28.4167 13.4166 28.4167H18.5832C18.9062 28.4167 19.1774 28.1842 19.2162 27.8742L19.707 24.4513C20.4949 24.1284 21.2182 23.6892 21.8899 23.1855L25.1062 24.4771C25.1837 24.503 25.2612 24.5159 25.3387 24.5159C25.5582 24.5159 25.7778 24.3996 25.8941 24.193L28.4774 19.7238C28.6324 19.4396 28.5678 19.0909 28.3224 18.8971L25.597 16.7659ZM23.0395 14.5571C23.0912 14.9575 23.1041 15.2288 23.1041 15.5C23.1041 15.7713 23.0782 16.0555 23.0395 16.443L22.8587 17.9025L24.0082 18.8067L25.4032 19.8917L24.4991 21.4546L22.8587 20.7959L21.5153 20.2534L20.3528 21.1317C19.7974 21.545 19.2678 21.855 18.7382 22.0746L17.3691 22.63L17.1624 24.0896L16.9041 25.8334H15.0957L14.8503 24.0896L14.6437 22.63L13.2745 22.0746C12.7191 21.8421 12.2024 21.545 11.6857 21.1575L10.5103 20.2534L9.14116 20.8088L7.50075 21.4675L6.59658 19.9046L7.99158 18.8196L9.14116 17.9155L8.96033 16.4559C8.92158 16.0555 8.89575 15.7584 8.89575 15.5C8.89575 15.2417 8.92158 14.9446 8.96033 14.5571L9.14116 13.0975L7.99158 12.1934L6.59658 11.1084L7.50075 9.54546L9.14116 10.2042L10.4845 10.7467L11.647 9.86837C12.2024 9.45504 12.732 9.14504 13.2616 8.92546L14.6307 8.37004L14.8374 6.91046L15.0957 5.16671H16.8912L17.1366 6.91046L17.3432 8.37004L18.7124 8.92546C19.2678 9.15796 19.7845 9.45504 20.3012 9.84254L21.4766 10.7467L22.8457 10.1913L24.4862 9.53254L25.3903 11.0955L24.0082 12.1934L22.8587 13.0975L23.0395 14.5571ZM15.9999 10.3334C13.1453 10.3334 10.8332 12.6455 10.8332 15.5C10.8332 18.3546 13.1453 20.6667 15.9999 20.6667C18.8545 20.6667 21.1666 18.3546 21.1666 15.5C21.1666 12.6455 18.8545 10.3334 15.9999 10.3334ZM15.9999 18.0834C14.5791 18.0834 13.4166 16.9209 13.4166 15.5C13.4166 14.0792 14.5791 12.9167 15.9999 12.9167C17.4207 12.9167 18.5832 14.0792 18.5832 15.5C18.5832 16.9209 17.4207 18.0834 15.9999 18.0834Z" fill="white"/>
</g>
</svg>
